<mxfile host="Electron" agent="Mozilla/5.0 (Windows NT 10.0; Win64; x64) AppleWebKit/537.36 (KHTML, like Gecko) draw.io/28.2.8 Chrome/140.0.7339.240 Electron/38.4.0 Safari/537.36" version="28.2.8">
  <diagram name="Page-1" id="2i8SHGNPEWAiUtIAL72d">
    <mxGraphModel dx="1090" dy="645" grid="0" gridSize="12" guides="1" tooltips="1" connect="1" arrows="1" fold="1" page="1" pageScale="1" pageWidth="850" pageHeight="1100" math="0" shadow="0">
      <root>
        <mxCell id="0" />
        <mxCell id="1" parent="0" />
        <mxCell id="cMT7jE5UbdgRVWfV_hXe-5" value="custome information" style="text;strokeColor=none;fillColor=none;align=left;verticalAlign=middle;spacingLeft=4;spacingRight=4;overflow=hidden;points=[[0,0.5],[1,0.5]];portConstraint=eastwest;rotatable=0;whiteSpace=wrap;html=1;" vertex="1" parent="1">
          <mxGeometry x="277.5" y="360" width="119" height="30" as="geometry" />
        </mxCell>
        <mxCell id="cMT7jE5UbdgRVWfV_hXe-6" value="&lt;b&gt;Crm_prd_info&lt;/b&gt;" style="swimlane;fontStyle=0;childLayout=stackLayout;horizontal=1;startSize=30;horizontalStack=0;resizeParent=1;resizeParentMax=0;resizeLast=0;collapsible=1;marginBottom=0;whiteSpace=wrap;html=1;rounded=1;fillColor=#dae8fc;strokeColor=#6c8ebf;" vertex="1" parent="1">
          <mxGeometry x="269" y="173" width="141" height="90" as="geometry" />
        </mxCell>
        <mxCell id="cMT7jE5UbdgRVWfV_hXe-7" value="prd_key" style="text;strokeColor=none;fillColor=none;align=left;verticalAlign=middle;spacingLeft=4;spacingRight=4;overflow=hidden;points=[[0,0.5],[1,0.5]];portConstraint=eastwest;rotatable=0;whiteSpace=wrap;html=1;" vertex="1" parent="cMT7jE5UbdgRVWfV_hXe-6">
          <mxGeometry y="30" width="141" height="30" as="geometry" />
        </mxCell>
        <mxCell id="cMT7jE5UbdgRVWfV_hXe-28" value="&lt;b&gt;PRODUCT&lt;/b&gt;" style="rounded=0;whiteSpace=wrap;html=1;fillColor=#d80073;strokeColor=#A50040;fontColor=#ffffff;" vertex="1" parent="cMT7jE5UbdgRVWfV_hXe-6">
          <mxGeometry y="60" width="141" height="30" as="geometry" />
        </mxCell>
        <mxCell id="cMT7jE5UbdgRVWfV_hXe-8" value="current &amp;amp; History Product information" style="text;strokeColor=none;fillColor=none;align=left;verticalAlign=middle;spacingLeft=4;spacingRight=4;overflow=hidden;points=[[0,0.5],[1,0.5]];portConstraint=eastwest;rotatable=0;whiteSpace=wrap;html=1;" vertex="1" parent="1">
          <mxGeometry x="270" y="136" width="190" height="30" as="geometry" />
        </mxCell>
        <mxCell id="cMT7jE5UbdgRVWfV_hXe-9" value="&lt;b&gt;Crm_sales details&lt;/b&gt;" style="swimlane;fontStyle=0;childLayout=stackLayout;horizontal=1;startSize=30;horizontalStack=0;resizeParent=1;resizeParentMax=0;resizeLast=0;collapsible=1;marginBottom=0;whiteSpace=wrap;html=1;rounded=1;fillColor=#dae8fc;strokeColor=#6c8ebf;" vertex="1" parent="1">
          <mxGeometry x="20" y="271" width="140" height="110" as="geometry" />
        </mxCell>
        <mxCell id="cMT7jE5UbdgRVWfV_hXe-10" value="prd_key" style="text;strokeColor=none;fillColor=none;align=left;verticalAlign=middle;spacingLeft=4;spacingRight=4;overflow=hidden;points=[[0,0.5],[1,0.5]];portConstraint=eastwest;rotatable=0;whiteSpace=wrap;html=1;" vertex="1" parent="cMT7jE5UbdgRVWfV_hXe-9">
          <mxGeometry y="30" width="140" height="40" as="geometry" />
        </mxCell>
        <mxCell id="cMT7jE5UbdgRVWfV_hXe-12" value="cust_id" style="text;strokeColor=none;fillColor=none;align=left;verticalAlign=middle;spacingLeft=4;spacingRight=4;overflow=hidden;points=[[0,0.5],[1,0.5]];portConstraint=eastwest;rotatable=0;whiteSpace=wrap;html=1;" vertex="1" parent="cMT7jE5UbdgRVWfV_hXe-9">
          <mxGeometry y="70" width="140" height="40" as="geometry" />
        </mxCell>
        <mxCell id="cMT7jE5UbdgRVWfV_hXe-11" value="Transactional records and orders" style="text;strokeColor=none;fillColor=none;align=left;verticalAlign=middle;spacingLeft=4;spacingRight=4;overflow=hidden;points=[[0,0.5],[1,0.5]];portConstraint=eastwest;rotatable=0;whiteSpace=wrap;html=1;" vertex="1" parent="1">
          <mxGeometry x="20" y="220" width="140" height="30" as="geometry" />
        </mxCell>
        <mxCell id="cMT7jE5UbdgRVWfV_hXe-24" value="&lt;b&gt;SALES&lt;/b&gt;" style="rounded=0;whiteSpace=wrap;html=1;fillColor=#0050ef;strokeColor=#001DBC;fontColor=#ffffff;" vertex="1" parent="1">
          <mxGeometry x="20" y="370" width="140" height="30" as="geometry" />
        </mxCell>
        <mxCell id="cMT7jE5UbdgRVWfV_hXe-29" value="&lt;b&gt;erp_loc_a101&lt;/b&gt;" style="swimlane;fontStyle=0;childLayout=stackLayout;horizontal=1;startSize=30;horizontalStack=0;resizeParent=1;resizeParentMax=0;resizeLast=0;collapsible=1;marginBottom=0;whiteSpace=wrap;html=1;rounded=1;fillColor=#ffe6cc;strokeColor=#d79b00;" vertex="1" parent="1">
          <mxGeometry x="618.5" y="506" width="140" height="60" as="geometry" />
        </mxCell>
        <mxCell id="cMT7jE5UbdgRVWfV_hXe-30" value="cid" style="text;strokeColor=none;fillColor=none;align=left;verticalAlign=middle;spacingLeft=4;spacingRight=4;overflow=hidden;points=[[0,0.5],[1,0.5]];portConstraint=eastwest;rotatable=0;whiteSpace=wrap;html=1;" vertex="1" parent="cMT7jE5UbdgRVWfV_hXe-29">
          <mxGeometry y="30" width="140" height="30" as="geometry" />
        </mxCell>
        <mxCell id="cMT7jE5UbdgRVWfV_hXe-31" value="Location of customers(country)" style="text;strokeColor=none;fillColor=none;align=left;verticalAlign=middle;spacingLeft=4;spacingRight=4;overflow=hidden;points=[[0,0.5],[1,0.5]];portConstraint=eastwest;rotatable=0;whiteSpace=wrap;html=1;" vertex="1" parent="1">
          <mxGeometry x="617" y="468" width="150" height="30" as="geometry" />
        </mxCell>
        <mxCell id="cMT7jE5UbdgRVWfV_hXe-32" value="&lt;b&gt;CUSTOMER&lt;/b&gt;" style="rounded=0;whiteSpace=wrap;html=1;fillColor=#60a917;strokeColor=#2D7600;fontColor=#ffffff;" vertex="1" parent="1">
          <mxGeometry x="617" y="557" width="143" height="30" as="geometry" />
        </mxCell>
        <mxCell id="cMT7jE5UbdgRVWfV_hXe-33" value="&lt;b&gt;erp_cust_az12&lt;/b&gt;" style="swimlane;fontStyle=0;childLayout=stackLayout;horizontal=1;startSize=30;horizontalStack=0;resizeParent=1;resizeParentMax=0;resizeLast=0;collapsible=1;marginBottom=0;whiteSpace=wrap;html=1;rounded=1;fillColor=#ffe6cc;strokeColor=#d79b00;" vertex="1" parent="1">
          <mxGeometry x="619" y="336" width="140" height="60" as="geometry" />
        </mxCell>
        <mxCell id="cMT7jE5UbdgRVWfV_hXe-34" value="cid" style="text;strokeColor=none;fillColor=none;align=left;verticalAlign=middle;spacingLeft=4;spacingRight=4;overflow=hidden;points=[[0,0.5],[1,0.5]];portConstraint=eastwest;rotatable=0;whiteSpace=wrap;html=1;" vertex="1" parent="cMT7jE5UbdgRVWfV_hXe-33">
          <mxGeometry y="30" width="140" height="30" as="geometry" />
        </mxCell>
        <mxCell id="cMT7jE5UbdgRVWfV_hXe-35" value="Extra customers Information birth date" style="text;strokeColor=none;fillColor=none;align=left;verticalAlign=middle;spacingLeft=4;spacingRight=4;overflow=hidden;points=[[0,0.5],[1,0.5]];portConstraint=eastwest;rotatable=0;whiteSpace=wrap;html=1;" vertex="1" parent="1">
          <mxGeometry x="619" y="307" width="150" height="30" as="geometry" />
        </mxCell>
        <mxCell id="cMT7jE5UbdgRVWfV_hXe-36" value="&lt;b&gt;CUSTOMER&lt;/b&gt;" style="rounded=0;whiteSpace=wrap;html=1;fillColor=#60a917;strokeColor=#2D7600;fontColor=#ffffff;" vertex="1" parent="1">
          <mxGeometry x="619" y="392" width="140" height="30" as="geometry" />
        </mxCell>
        <mxCell id="cMT7jE5UbdgRVWfV_hXe-37" value="&lt;b&gt;erp_px_cat_g1v2&lt;/b&gt;" style="swimlane;fontStyle=0;childLayout=stackLayout;horizontal=1;startSize=30;horizontalStack=0;resizeParent=1;resizeParentMax=0;resizeLast=0;collapsible=1;marginBottom=0;whiteSpace=wrap;html=1;rounded=1;fillColor=#ffe6cc;strokeColor=#d79b00;" vertex="1" parent="1">
          <mxGeometry x="622" y="158" width="140" height="60" as="geometry" />
        </mxCell>
        <mxCell id="cMT7jE5UbdgRVWfV_hXe-38" value="id" style="text;strokeColor=none;fillColor=none;align=left;verticalAlign=middle;spacingLeft=4;spacingRight=4;overflow=hidden;points=[[0,0.5],[1,0.5]];portConstraint=eastwest;rotatable=0;whiteSpace=wrap;html=1;" vertex="1" parent="cMT7jE5UbdgRVWfV_hXe-37">
          <mxGeometry y="30" width="140" height="30" as="geometry" />
        </mxCell>
        <mxCell id="cMT7jE5UbdgRVWfV_hXe-39" value="Product categories" style="text;strokeColor=none;fillColor=none;align=left;verticalAlign=middle;spacingLeft=4;spacingRight=4;overflow=hidden;points=[[0,0.5],[1,0.5]];portConstraint=eastwest;rotatable=0;whiteSpace=wrap;html=1;" vertex="1" parent="1">
          <mxGeometry x="622" y="133" width="150" height="30" as="geometry" />
        </mxCell>
        <mxCell id="cMT7jE5UbdgRVWfV_hXe-40" value="&lt;b&gt;PRODUCT&lt;/b&gt;" style="rounded=0;whiteSpace=wrap;html=1;fillColor=#d80073;strokeColor=#A50040;fontColor=#ffffff;" vertex="1" parent="1">
          <mxGeometry x="622" y="213" width="140" height="25" as="geometry" />
        </mxCell>
        <mxCell id="cMT7jE5UbdgRVWfV_hXe-41" value="&lt;b&gt;Crm_cust_info&lt;/b&gt;" style="swimlane;fontStyle=0;childLayout=stackLayout;horizontal=1;startSize=30;horizontalStack=0;resizeParent=1;resizeParentMax=0;resizeLast=0;collapsible=1;marginBottom=0;whiteSpace=wrap;html=1;rounded=1;fillColor=#dae8fc;strokeColor=#6c8ebf;" vertex="1" parent="1">
          <mxGeometry x="270" y="382" width="140" height="130" as="geometry" />
        </mxCell>
        <mxCell id="cMT7jE5UbdgRVWfV_hXe-42" value="cst_id" style="text;strokeColor=none;fillColor=none;align=left;verticalAlign=middle;spacingLeft=4;spacingRight=4;overflow=hidden;points=[[0,0.5],[1,0.5]];portConstraint=eastwest;rotatable=0;whiteSpace=wrap;html=1;" vertex="1" parent="cMT7jE5UbdgRVWfV_hXe-41">
          <mxGeometry y="30" width="140" height="30" as="geometry" />
        </mxCell>
        <mxCell id="cMT7jE5UbdgRVWfV_hXe-43" value="cst_key" style="text;strokeColor=none;fillColor=none;align=left;verticalAlign=middle;spacingLeft=4;spacingRight=4;overflow=hidden;points=[[0,0.5],[1,0.5]];portConstraint=eastwest;rotatable=0;whiteSpace=wrap;html=1;" vertex="1" parent="cMT7jE5UbdgRVWfV_hXe-41">
          <mxGeometry y="60" width="140" height="40" as="geometry" />
        </mxCell>
        <mxCell id="cMT7jE5UbdgRVWfV_hXe-27" value="&lt;b&gt;CUSTOMER&lt;/b&gt;" style="rounded=0;whiteSpace=wrap;html=1;fillColor=#60a917;strokeColor=#2D7600;fontColor=#ffffff;" vertex="1" parent="cMT7jE5UbdgRVWfV_hXe-41">
          <mxGeometry y="100" width="140" height="30" as="geometry" />
        </mxCell>
        <mxCell id="cMT7jE5UbdgRVWfV_hXe-45" value="" style="strokeWidth=2;html=1;shape=mxgraph.flowchart.annotation_2;align=left;labelPosition=right;pointerEvents=1;" vertex="1" parent="1">
          <mxGeometry x="420" y="385" width="190" height="155" as="geometry" />
        </mxCell>
        <mxCell id="cMT7jE5UbdgRVWfV_hXe-52" value="" style="edgeStyle=elbowEdgeStyle;elbow=horizontal;endArrow=classic;html=1;curved=0;rounded=0;endSize=8;startSize=8;entryX=0;entryY=0.5;entryDx=0;entryDy=0;" edge="1" parent="1" target="cMT7jE5UbdgRVWfV_hXe-7">
          <mxGeometry width="50" height="50" relative="1" as="geometry">
            <mxPoint x="160" y="307" as="sourcePoint" />
            <mxPoint x="257" y="220" as="targetPoint" />
          </mxGeometry>
        </mxCell>
        <mxCell id="cMT7jE5UbdgRVWfV_hXe-53" value="" style="edgeStyle=elbowEdgeStyle;elbow=horizontal;endArrow=classic;html=1;curved=0;rounded=0;endSize=8;startSize=8;" edge="1" parent="1">
          <mxGeometry width="50" height="50" relative="1" as="geometry">
            <mxPoint x="160" y="351" as="sourcePoint" />
            <mxPoint x="260" y="450" as="targetPoint" />
          </mxGeometry>
        </mxCell>
        <mxCell id="cMT7jE5UbdgRVWfV_hXe-55" value="" style="rounded=1;whiteSpace=wrap;html=1;glass=0;dashed=1;strokeWidth=2;gradientColor=none;fillColor=none;" vertex="1" parent="1">
          <mxGeometry x="20" y="99" width="450" height="572" as="geometry" />
        </mxCell>
        <mxCell id="cMT7jE5UbdgRVWfV_hXe-56" value="" style="rounded=1;whiteSpace=wrap;html=1;glass=0;dashed=1;strokeWidth=2;gradientColor=none;fillColor=none;" vertex="1" parent="1">
          <mxGeometry x="577" y="89" width="276" height="576" as="geometry" />
        </mxCell>
        <mxCell id="cMT7jE5UbdgRVWfV_hXe-57" value="&lt;b&gt;&lt;font style=&quot;font-size: 20px;&quot;&gt;EPR&lt;/font&gt;&lt;/b&gt;" style="rounded=1;whiteSpace=wrap;html=1;fillColor=#ffe6cc;strokeColor=#d79b00;" vertex="1" parent="1">
          <mxGeometry x="654" y="60" width="96" height="60" as="geometry" />
        </mxCell>
        <mxCell id="cMT7jE5UbdgRVWfV_hXe-58" value="&lt;span style=&quot;font-size: 20px;&quot;&gt;&lt;b&gt;CRM&lt;/b&gt;&lt;/span&gt;" style="rounded=1;whiteSpace=wrap;html=1;fillColor=#ffe6cc;strokeColor=#d79b00;" vertex="1" parent="1">
          <mxGeometry x="187" y="76" width="96" height="60" as="geometry" />
        </mxCell>
        <mxCell id="cMT7jE5UbdgRVWfV_hXe-61" value="" style="endArrow=none;html=1;rounded=0;entryX=0.217;entryY=0.188;entryDx=0;entryDy=0;entryPerimeter=0;strokeWidth=2;" edge="1" parent="1">
          <mxGeometry width="50" height="50" relative="1" as="geometry">
            <mxPoint x="410" y="213" as="sourcePoint" />
            <mxPoint x="623.892" y="212.99800000000002" as="targetPoint" />
          </mxGeometry>
        </mxCell>
      </root>
    </mxGraphModel>
  </diagram>
</mxfile>
